<mxfile host="app.diagrams.net" agent="Mozilla/5.0 (X11; Linux x86_64; rv:133.0) Gecko/20100101 Firefox/133.0" version="25.0.3">
  <diagram name="Page-1" id="13e1069c-82ec-6db2-03f1-153e76fe0fe0">
    <mxGraphModel dx="2034" dy="1310" grid="1" gridSize="10" guides="1" tooltips="1" connect="1" arrows="1" fold="1" page="1" pageScale="1" pageWidth="1100" pageHeight="850" background="none" math="0" shadow="0">
      <root>
        <mxCell id="0" />
        <mxCell id="1" parent="0" />
        <mxCell id="ln-Szk9AGflIyGVg6pl5-1" value="&lt;div&gt;User&lt;/div&gt;" style="shape=umlActor;verticalLabelPosition=bottom;verticalAlign=top;html=1;outlineConnect=0;" parent="1" vertex="1">
          <mxGeometry x="40" y="-260" width="30" height="60" as="geometry" />
        </mxCell>
        <mxCell id="ln-Szk9AGflIyGVg6pl5-2" value="&lt;div&gt;Students &amp;amp; Companies&lt;/div&gt;" style="rounded=1;whiteSpace=wrap;html=1;" parent="1" vertex="1">
          <mxGeometry x="200" y="-260" width="120" height="80" as="geometry" />
        </mxCell>
        <mxCell id="ln-Szk9AGflIyGVg6pl5-4" value="AWS Database" style="rounded=1;whiteSpace=wrap;html=1;" parent="1" vertex="1">
          <mxGeometry x="600" y="-260" width="120" height="80" as="geometry" />
        </mxCell>
        <mxCell id="ln-Szk9AGflIyGVg6pl5-5" value="" style="endArrow=none;dashed=1;html=1;rounded=0;" parent="1" edge="1">
          <mxGeometry width="50" height="50" relative="1" as="geometry">
            <mxPoint x="60" y="70" as="sourcePoint" />
            <mxPoint x="60" y="-160" as="targetPoint" />
          </mxGeometry>
        </mxCell>
        <mxCell id="ln-Szk9AGflIyGVg6pl5-8" value="" style="endArrow=none;dashed=1;html=1;rounded=0;entryX=0.5;entryY=1;entryDx=0;entryDy=0;" parent="1" target="ln-Szk9AGflIyGVg6pl5-4" edge="1">
          <mxGeometry width="50" height="50" relative="1" as="geometry">
            <mxPoint x="660" y="70" as="sourcePoint" />
            <mxPoint x="659" y="210" as="targetPoint" />
          </mxGeometry>
        </mxCell>
        <mxCell id="ln-Szk9AGflIyGVg6pl5-10" value="" style="endArrow=none;dashed=1;html=1;rounded=0;entryX=0.5;entryY=1;entryDx=0;entryDy=0;" parent="1" target="ln-Szk9AGflIyGVg6pl5-2" edge="1" source="ln-Szk9AGflIyGVg6pl5-20">
          <mxGeometry width="50" height="50" relative="1" as="geometry">
            <mxPoint x="260" y="350" as="sourcePoint" />
            <mxPoint x="260" y="250" as="targetPoint" />
          </mxGeometry>
        </mxCell>
        <mxCell id="ln-Szk9AGflIyGVg6pl5-54" value="" style="rounded=0;whiteSpace=wrap;html=1;" parent="1" vertex="1">
          <mxGeometry x="648.75" y="-100" width="20" height="100" as="geometry" />
        </mxCell>
        <mxCell id="AzrbvuX2ZgRUmVUoGmSy-5" value="" style="endArrow=classic;html=1;rounded=0;exitX=1.212;exitY=0.053;exitDx=0;exitDy=0;exitPerimeter=0;" parent="1" edge="1">
          <mxGeometry width="50" height="50" relative="1" as="geometry">
            <mxPoint x="267.4999999999998" y="-98.26999999999998" as="sourcePoint" />
            <mxPoint x="648.75" y="-100" as="targetPoint" />
          </mxGeometry>
        </mxCell>
        <mxCell id="sn7gj-G19lsIhyRGJPzt-11" value="" style="endArrow=block;dashed=1;endFill=0;endSize=12;html=1;rounded=0;" edge="1" parent="1">
          <mxGeometry width="160" relative="1" as="geometry">
            <mxPoint x="249.68" y="-50" as="sourcePoint" />
            <mxPoint x="57.81" y="-50" as="targetPoint" />
          </mxGeometry>
        </mxCell>
        <mxCell id="sn7gj-G19lsIhyRGJPzt-20" value="" style="endArrow=block;dashed=1;endFill=0;endSize=12;html=1;rounded=0;" edge="1" parent="1">
          <mxGeometry width="160" relative="1" as="geometry">
            <mxPoint x="648.75" y="-59.59000000000003" as="sourcePoint" />
            <mxPoint x="268.75" y="-60" as="targetPoint" />
          </mxGeometry>
        </mxCell>
        <mxCell id="sn7gj-G19lsIhyRGJPzt-21" value="Server Error" style="text;html=1;align=center;verticalAlign=middle;whiteSpace=wrap;rounded=0;" vertex="1" parent="1">
          <mxGeometry x="268.75" y="-80" width="100" height="20" as="geometry" />
        </mxCell>
        <mxCell id="sn7gj-G19lsIhyRGJPzt-24" value="Error Message" style="text;html=1;align=center;verticalAlign=middle;whiteSpace=wrap;rounded=0;" vertex="1" parent="1">
          <mxGeometry x="106.88" y="-85" width="100" height="30" as="geometry" />
        </mxCell>
        <mxCell id="sn7gj-G19lsIhyRGJPzt-43" value="" style="endArrow=classic;html=1;rounded=0;" edge="1" parent="1">
          <mxGeometry width="50" height="50" relative="1" as="geometry">
            <mxPoint x="59.36" y="-120" as="sourcePoint" />
            <mxPoint x="248.12" y="-120" as="targetPoint" />
          </mxGeometry>
        </mxCell>
        <mxCell id="sn7gj-G19lsIhyRGJPzt-44" value="Open Feedback View" style="text;html=1;align=center;verticalAlign=middle;whiteSpace=wrap;rounded=0;" vertex="1" parent="1">
          <mxGeometry x="66.24" y="-150" width="180" height="30" as="geometry" />
        </mxCell>
        <mxCell id="sn7gj-G19lsIhyRGJPzt-45" value="" style="endArrow=block;dashed=1;endFill=0;endSize=12;html=1;rounded=0;" edge="1" parent="1">
          <mxGeometry width="160" relative="1" as="geometry">
            <mxPoint x="250" y="10" as="sourcePoint" />
            <mxPoint x="58.13" y="10" as="targetPoint" />
          </mxGeometry>
        </mxCell>
        <mxCell id="sn7gj-G19lsIhyRGJPzt-46" value="Load Feedback View" style="text;html=1;align=center;verticalAlign=middle;whiteSpace=wrap;rounded=0;" vertex="1" parent="1">
          <mxGeometry x="95.48" y="-20" width="122.8" height="30" as="geometry" />
        </mxCell>
        <mxCell id="sn7gj-G19lsIhyRGJPzt-58" value="Request Internship Data" style="text;html=1;align=center;verticalAlign=middle;whiteSpace=wrap;rounded=0;" vertex="1" parent="1">
          <mxGeometry x="270" y="-130" width="160" height="30" as="geometry" />
        </mxCell>
        <mxCell id="sn7gj-G19lsIhyRGJPzt-59" value="" style="endArrow=block;dashed=1;endFill=0;endSize=12;html=1;rounded=0;" edge="1" parent="1">
          <mxGeometry width="160" relative="1" as="geometry">
            <mxPoint x="650" y="-0.5900000000000318" as="sourcePoint" />
            <mxPoint x="270" y="-1" as="targetPoint" />
          </mxGeometry>
        </mxCell>
        <mxCell id="sn7gj-G19lsIhyRGJPzt-60" value="Return Internship Data" style="text;html=1;align=center;verticalAlign=middle;whiteSpace=wrap;rounded=0;" vertex="1" parent="1">
          <mxGeometry x="282.5" y="-20" width="140" height="20" as="geometry" />
        </mxCell>
        <mxCell id="sn7gj-G19lsIhyRGJPzt-62" value="IF NOT" style="shape=umlFrame;whiteSpace=wrap;html=1;pointerEvents=0;" vertex="1" parent="1">
          <mxGeometry x="-110" y="-30" width="850" height="70" as="geometry" />
        </mxCell>
        <mxCell id="sn7gj-G19lsIhyRGJPzt-69" value="" style="endArrow=none;dashed=1;html=1;rounded=0;entryX=0.5;entryY=1;entryDx=0;entryDy=0;" edge="1" parent="1" target="ln-Szk9AGflIyGVg6pl5-20">
          <mxGeometry width="50" height="50" relative="1" as="geometry">
            <mxPoint x="260" y="80" as="sourcePoint" />
            <mxPoint x="260" y="-180" as="targetPoint" />
          </mxGeometry>
        </mxCell>
        <mxCell id="ln-Szk9AGflIyGVg6pl5-20" value="" style="rounded=0;whiteSpace=wrap;html=1;" parent="1" vertex="1">
          <mxGeometry x="250" y="-120" width="20" height="130" as="geometry" />
        </mxCell>
        <mxCell id="sn7gj-G19lsIhyRGJPzt-61" value="ALT" style="shape=umlFrame;whiteSpace=wrap;html=1;pointerEvents=0;" vertex="1" parent="1">
          <mxGeometry x="-110" y="-80" width="850" height="50" as="geometry" />
        </mxCell>
      </root>
    </mxGraphModel>
  </diagram>
</mxfile>
